<svg viewBox="0 0 24 24" fill="none" xmlns="http://www.w3.org/2000/svg" xmlns:xlink="http://www.w3.org/1999/xlink" x="0" y="0"><defs><mask id="path-44-inside-14_24_5679" fill="white">
<path d="M2,11.9999c0,-5.523 4.477,-10 10,-10c5.523,0 10,4.477 10,10c0,5.523 -4.477,10 -10,10c-5.523,0 -10,-4.477 -10,-10z"/>
</mask><mask id="path-46-inside-15_24_5679" fill="white">
<path d="M2,11.9999c0,-5.523 4.477,-10 10,-10c5.523,0 10,4.477 10,10c0,5.523 -4.477,10 -10,10c-5.523,0 -10,-4.477 -10,-10z"/>
</mask></defs><g id="i.bong-da">
<g id="::before_6">
<mask id="path-44-inside-14_24_5679" fill="white">
<path d="M167 440.89C167 435.367 171.477 430.89 177 430.89C182.523 430.89 187 435.367 187 440.89C187 446.413 182.523 450.89 177 450.89C171.477 450.89 167 446.413 167 440.89Z"/>
</mask>
<path d="M2,11.9999c0,-5.523 4.477,-10 10,-10c5.523,0 10,4.477 10,10c0,5.523 -4.477,10 -10,10c-5.523,0 -10,-4.477 -10,-10z" fill="#EBEBEB"/>
<path d="M2,11.9999M22,11.9999M22,11.9999M2,11.9999M12,1.9999M22,11.9999M12,21.9999M2,11.9999M12,21.9999v-1c-4.97,0 -9,-4.029 -9,-9h-1h-1c0,6.075 4.925,11 11,11zM22,11.9999h-1c0,4.971 -4.03,9 -9,9v1v1c6.075,0 11,-4.925 11,-11zM12,1.9999v1c4.97,0 9,4.03 9,9h1h1c0,-6.075 -4.925,-11 -11,-11zM12,1.9999v-1c-6.075,0 -11,4.925 -11,11h1h1c0,-4.97 4.03,-9 9,-9z" fill="#CAD1D7" mask="url(#path-44-inside-14_24_5679)"/>
</g>
<g id="::after_7">
<mask id="path-46-inside-15_24_5679" fill="white">
<path d="M167 440.89C167 435.367 171.477 430.89 177 430.89C182.523 430.89 187 435.367 187 440.89C187 446.413 182.523 450.89 177 450.89C171.477 450.89 167 446.413 167 440.89Z"/>
</mask>
<path d="M2,11.9999c0,-5.523 4.477,-10 10,-10c5.523,0 10,4.477 10,10c0,5.523 -4.477,10 -10,10c-5.523,0 -10,-4.477 -10,-10z" fill="#EBEBEB"/>
<path d="M2,11.9999M22,11.9999M22,11.9999M2,11.9999M12,1.9999M22,11.9999M12,21.9999M2,11.9999M12,21.9999v-1c-4.97,0 -9,-4.029 -9,-9h-1h-1c0,6.075 4.925,11 11,11zM22,11.9999h-1c0,4.971 -4.03,9 -9,9v1v1c6.075,0 11,-4.925 11,-11zM12,1.9999v1c4.97,0 9,4.03 9,9h1h1c0,-6.075 -4.925,-11 -11,-11zM12,1.9999v-1c-6.075,0 -11,4.925 -11,11h1h1c0,-4.97 4.03,-9 9,-9z" fill="#CAD1D7" mask="url(#path-46-inside-15_24_5679)"/>
</g>
</g></svg>