<svg viewBox="0 0 24 24" fill="none" xmlns="http://www.w3.org/2000/svg" xmlns:xlink="http://www.w3.org/1999/xlink" x="0" y="0"><defs><mask id="path-68-inside-22_24_5679" fill="white">
<path d="M2,11.9999c0,-5.523 4.477,-10 10,-10c5.523,0 10,4.477 10,10c0,5.523 -4.477,10 -10,10c-5.523,0 -10,-4.477 -10,-10z"/>
</mask><mask id="path-70-inside-23_24_5679" fill="white">
<path d="M2,11.9999c0,-5.523 4.477,-10 10,-10c5.523,0 10,4.477 10,10c0,5.523 -4.477,10 -10,10c-5.523,0 -10,-4.477 -10,-10z"/>
</mask></defs><g id="i.golf">
<g id="::before_10">
<mask id="path-68-inside-22_24_5679" fill="white">
<path d="M167 570.89C167 565.367 171.477 560.89 177 560.89C182.523 560.89 187 565.367 187 570.89C187 576.413 182.523 580.89 177 580.89C171.477 580.89 167 576.413 167 570.89Z"/>
</mask>
<path d="M2,11.9999c0,-5.523 4.477,-10 10,-10c5.523,0 10,4.477 10,10c0,5.523 -4.477,10 -10,10c-5.523,0 -10,-4.477 -10,-10z" fill="#EBEBEB"/>
<path d="M2,11.9999M22,11.9999M22,11.9999M2,11.9999M12,1.9999M22,11.9999M12,21.9999M2,11.9999M12,21.9999v-1c-4.97,0 -9,-4.029 -9,-9h-1h-1c0,6.075 4.925,11 11,11zM22,11.9999h-1c0,4.971 -4.03,9 -9,9v1v1c6.075,0 11,-4.925 11,-11zM12,1.9999v1c4.97,0 9,4.03 9,9h1h1c0,-6.075 -4.925,-11 -11,-11zM12,1.9999v-1c-6.075,0 -11,4.925 -11,11h1h1c0,-4.97 4.03,-9 9,-9z" fill="#CAD1D7" mask="url(#path-68-inside-22_24_5679)"/>
</g>
<g id="::after_11">
<mask id="path-70-inside-23_24_5679" fill="white">
<path d="M167 570.89C167 565.367 171.477 560.89 177 560.89C182.523 560.89 187 565.367 187 570.89C187 576.413 182.523 580.89 177 580.89C171.477 580.89 167 576.413 167 570.89Z"/>
</mask>
<path d="M2,11.9999c0,-5.523 4.477,-10 10,-10c5.523,0 10,4.477 10,10c0,5.523 -4.477,10 -10,10c-5.523,0 -10,-4.477 -10,-10z" fill="#EBEBEB"/>
<path d="M2,11.9999M22,11.9999M22,11.9999M2,11.9999M12,1.9999M22,11.9999M12,21.9999M2,11.9999M12,21.9999v-1c-4.97,0 -9,-4.029 -9,-9h-1h-1c0,6.075 4.925,11 11,11zM22,11.9999h-1c0,4.971 -4.03,9 -9,9v1v1c6.075,0 11,-4.925 11,-11zM12,1.9999v1c4.97,0 9,4.03 9,9h1h1c0,-6.075 -4.925,-11 -11,-11zM12,1.9999v-1c-6.075,0 -11,4.925 -11,11h1h1c0,-4.97 4.03,-9 9,-9z" fill="#CAD1D7" mask="url(#path-70-inside-23_24_5679)"/>
</g>
</g></svg>